<svg viewBox="0 0 24 24" xmlns="http://www.w3.org/2000/svg"><g stroke="none" stroke-width="1" fill="none" fill-rule="evenodd"><g transform="translate(1.000000, 3.000000)" fill="#0089D6" fill-rule="nonzero"><path d="M10.4992954,15.6148313 C13.2489078,15.1291584 15.5199306,14.7272642 15.5460137,14.7217334 L15.593438,14.711677 L12.9975328,11.6242607 C11.5697861,9.92618141 10.4016289,8.53025994 10.4016289,8.52221313 C10.4016289,8.5069781 13.0821203,1.12627639 13.0971891,1.1 C13.1022273,1.09123923 14.9263831,4.24025618 17.5190624,8.73344346 C19.9463763,12.9400459 21.9475788,16.4084047 21.9661794,16.4409059 L22,16.5 L13.7499992,16.498936 L5.5,16.4978763 L10.4992954,15.6148343 L10.4992954,15.6148313 Z" id="path21-path"></path><path d="M0,15.3943693 C0,15.389832 1.25607646,13.1737172 2.79128098,10.469668 L5.58256151,5.55321536 L8.8354763,2.77871175 C10.6245794,1.25273511 12.093209,0.00234309525 12.099097,0 C12.1049851,-0.00221727988 12.0814498,0.0579868051 12.0467964,0.13385039 C12.012143,0.209713976 10.4226496,3.67477422 8.51458878,7.83398397 L5.04538814,15.3961833 L2.52269407,15.3993979 C1.13521264,15.4011677 0,15.3989012 0,15.3943675 L0,15.3943693 Z" id="path21-path"></path></g></g></svg>