<svg xmlns="http://www.w3.org/2000/svg" viewBox="0 0 35 35"><path d="M22.216 27.718v5.502c0 .425-.156.794-.467 1.105a1.51 1.51 0 0 1-1.105.467h-6.288a1.51 1.51 0 0 1-1.105-.467 1.51 1.51 0 0 1-.467-1.105v-5.502c0-.426.156-.794.467-1.105a1.51 1.51 0 0 1 1.105-.467h6.288c.426 0 .794.155 1.105.467.311.31.467.68.467 1.105zm.737-25.938l-.688 18.864a1.582 1.582 0 0 1-.503 1.105c-.32.311-.692.467-1.118.467h-6.288c-.426 0-.798-.156-1.118-.467a1.582 1.582 0 0 1-.503-1.105L12.047 1.78a1.446 1.446 0 0 1 .43-1.105A1.47 1.47 0 0 1 13.57.208h7.86c.426 0 .79.156 1.093.467s.446.68.43 1.105z"/></svg>