<svg viewBox="0 0 34 32" xmlns="http://www.w3.org/2000/svg"><g fill-rule="nonzero" fill="none"><path d="M33.61 18.309l-1.85-5.686-3.667-11.268c-.189-.58-1.01-.58-1.2 0l-3.666 11.268H11.052L7.385 1.355c-.188-.58-1.01-.58-1.199 0L2.52 12.623.67 18.31a1.258 1.258 0 0 0 .458 1.407L17.14 31.333 33.15 19.716c.442-.32.627-.889.458-1.407" fill="#FC6D26"/><path d="M17.14 31.333l6.087-18.71H11.052z" fill="#E24329"/><path d="M17.14 31.333l-6.088-18.71H2.52z" fill="#FC6D26"/><path d="M2.52 12.623L.67 18.31a1.257 1.257 0 0 0 .458 1.407L17.14 31.333 2.52 12.623z" fill="#FCA326"/><path d="M2.52 12.623h8.532L7.385 1.355c-.189-.58-1.01-.58-1.199 0L2.52 12.623z" fill="#E24329"/><path d="M17.14 31.333l6.087-18.71h8.532z" fill="#FC6D26"/><path d="M31.76 12.623l1.85 5.686a1.257 1.257 0 0 1-.459 1.407L17.14 31.333l14.62-18.71z" fill="#FCA326"/><path d="M31.76 12.623h-8.533l3.667-11.268c.189-.58 1.01-.58 1.199 0l3.666 11.268z" fill="#E24329"/></g></svg>