<svg xmlns="http://www.w3.org/2000/svg" viewBox="0 0 44 40"><path fill-rule="evenodd" d="M22.159 14.03a4.315 4.315 0 0 1-4.333-2.115 4.314 4.314 0 0 1 1.578-5.89 4.314 4.314 0 0 1 5.89 1.578 4.315 4.315 0 0 1-.334 4.81l5.075 8.79c4.357-1.625 9.384.083 11.786 4.244 2.677 4.637 1.086 10.576-3.552 13.253a9.674 9.674 0 0 1-7.565.91l1.02-3.072a6.448 6.448 0 0 0 4.928-.639 6.471 6.471 0 0 0 2.368-8.835 6.471 6.471 0 0 0-10.134-1.382L22.16 14.03zm7.261 14.648a4.316 4.316 0 0 1 3.998-2.695 4.314 4.314 0 0 1 4.312 4.312 4.314 4.314 0 0 1-4.312 4.312 4.316 4.316 0 0 1-3.998-2.695H19.27c-.77 4.586-4.764 8.085-9.568 8.085C4.347 39.997 0 35.65 0 30.295c0-2.753 1.15-5.24 2.994-7.007l2.15 2.419a6.448 6.448 0 0 0-1.91 4.588 6.471 6.471 0 0 0 6.468 6.468 6.471 6.471 0 0 0 6.264-8.085H29.42zm-16.318-1.09a4.316 4.316 0 0 1 .335 4.81 4.314 4.314 0 0 1-5.89 1.577 4.314 4.314 0 0 1-1.58-5.89 4.316 4.316 0 0 1 4.334-2.115l5.075-8.79c-3.586-2.96-4.62-8.169-2.218-12.329C15.835.214 21.774-1.377 26.411 1.3a9.675 9.675 0 0 1 4.571 6.097l-3.17.652a6.449 6.449 0 0 0-3.018-3.948 6.471 6.471 0 0 0-8.835 2.367 6.471 6.471 0 0 0 3.87 9.468l-6.727 11.651z"/></svg>