<svg xmlns="http://www.w3.org/2000/svg" viewBox="0 0 16 14"><path fill-rule="evenodd" d="M7.756 4.91a1.51 1.51 0 0 1-.966-2.8 1.51 1.51 0 0 1 1.945 2.235l1.776 3.077a3.397 3.397 0 1 1 .234 6.442l.357-1.075a2.265 2.265 0 1 0-.993-3.8L7.756 4.91zm2.541 5.127a1.51 1.51 0 0 1 2.909.566 1.51 1.51 0 0 1-2.909.566H6.744a3.397 3.397 0 1 1-5.696-3.018l.753.846a2.265 2.265 0 1 0 3.787 1.04h4.71zm-5.711-.382a1.51 1.51 0 0 1-1.945 2.236 1.51 1.51 0 0 1 .964-2.801l1.777-3.077a3.397 3.397 0 1 1 5.462-3.424l-1.11.228a2.265 2.265 0 1 0-2.794 2.76L4.586 9.655z"/></svg>