<svg xmlns="http://www.w3.org/2000/svg" viewBox="0 0 40 40"><g fill="none" fill-rule="evenodd"><path d="M8.516 25.226a4.171 4.171 0 0 1-4.161 4.161 4.171 4.171 0 0 1-4.161-4.161 4.171 4.171 0 0 1 4.16-4.161h4.162v4.16zm2.097 0a4.171 4.171 0 0 1 4.161-4.161 4.171 4.171 0 0 1 4.161 4.16v10.42a4.171 4.171 0 0 1-4.16 4.161 4.171 4.171 0 0 1-4.162-4.16v-10.42z" fill="#E01E5A"/><path d="M14.774 8.516a4.171 4.171 0 0 1-4.161-4.161A4.171 4.171 0 0 1 14.774.194a4.171 4.171 0 0 1 4.161 4.16v4.162h-4.16zm0 2.097a4.171 4.171 0 0 1 4.161 4.161 4.171 4.171 0 0 1-4.16 4.161H4.354a4.171 4.171 0 0 1-4.161-4.16 4.171 4.171 0 0 1 4.16-4.162h10.42z" fill="#36C5F0"/><path d="M31.484 14.774a4.171 4.171 0 0 1 4.161-4.161 4.171 4.171 0 0 1 4.161 4.161 4.171 4.171 0 0 1-4.16 4.161h-4.162v-4.16zm-2.097 0a4.171 4.171 0 0 1-4.161 4.161 4.171 4.171 0 0 1-4.161-4.16V4.354a4.171 4.171 0 0 1 4.16-4.161 4.171 4.171 0 0 1 4.162 4.16v10.42z" fill="#2EB67D"/><path d="M25.226 31.484a4.171 4.171 0 0 1 4.161 4.161 4.171 4.171 0 0 1-4.161 4.161 4.171 4.171 0 0 1-4.161-4.16v-4.162h4.16zm0-2.097a4.171 4.171 0 0 1-4.161-4.161 4.171 4.171 0 0 1 4.16-4.161h10.42a4.171 4.171 0 0 1 4.161 4.16 4.171 4.171 0 0 1-4.16 4.162h-10.42z" fill="#ECB22E"/></g></svg>