<svg xmlns="http://www.w3.org/2000/svg" viewBox="0 0 35 35"><path d="M17.5 8.854V1.938H.208v31.125h34.584V8.854H17.5zM7.125 29.604H3.667v-3.458h3.458v3.458zm0-6.916H3.667v-3.459h3.458v3.459zm0-6.917H3.667v-3.459h3.458v3.459zm0-6.917H3.667V5.396h3.458v3.458zm6.917 20.75h-3.459v-3.458h3.459v3.458zm0-6.916h-3.459v-3.459h3.459v3.459zm0-6.917h-3.459v-3.459h3.459v3.459zm0-6.917h-3.459V5.396h3.459v3.458zm17.291 20.75H17.5v-3.458h3.458v-3.459H17.5V19.23h3.458v-3.458H17.5v-3.459h13.833v17.292zm-3.458-13.833h-3.458v3.458h3.458v-3.458zm0 6.916h-3.458v3.459h3.458v-3.459z"/></svg>