<svg xmlns="http://www.w3.org/2000/svg" viewBox="0 0 35 35"><path d="M23.803 15.924c2.616 0 4.712-2.111 4.712-4.727S26.419 6.47 23.803 6.47s-4.727 2.111-4.727 4.727 2.111 4.727 4.727 4.727zm-12.606 0c2.616 0 4.711-2.111 4.711-4.727S13.813 6.47 11.197 6.47 6.47 8.58 6.47 11.197s2.111 4.727 4.727 4.727zm0 3.152c-3.672 0-11.03 1.843-11.03 5.515v3.94h22.06v-3.94c0-3.672-7.359-5.515-11.03-5.515zm12.606 0c-.457 0-.977.031-1.528.079 1.827 1.323 3.104 3.104 3.104 5.436v3.94h9.454v-3.94c0-3.672-7.358-5.515-11.03-5.515z"/></svg>