<svg viewBox="0 0 24 24" xmlns="http://www.w3.org/2000/svg" xmlns:xlink="http://www.w3.org/1999/xlink"><defs><path d="M9 11H7v2h2v-2zm0-3H7v2h2V8zm0-3H7v2h2V5zm11-1v15c0 1-1 2-2 2h-7v3l-2-2-2 2v-3H6c-1 0-2-1-2-2V4c0-1 1-2 2-2h12c1 0 2 1 2 2zm-2 12H6v3h1v-2h4v2h7v-3zm0-12H6v11h12V4z" id="repo-a"/></defs><g fill="none" fill-rule="evenodd"><mask id="repo-b" fill="#fff"><use xlink:href="#repo-a"/></mask><use fill="#000" fill-rule="nonzero" xlink:href="#repo-a"/><g mask="url(#repo-b)" fill="#000"><path d="M0 0h24v24H0z"/><path d="M0 0h24v24H0z"/></g></g></svg>
