<svg xmlns="http://www.w3.org/2000/svg" viewBox="0 0 35 35"><path d="M17.49 10.695a6.767 6.767 0 0 0-5.15 2.342c-2.462 2.833-2.16 7.142.673 9.609a6.773 6.773 0 0 0 4.942 1.651 6.756 6.756 0 0 0 4.664-2.326c2.462-2.834 2.162-7.143-.672-9.606a6.758 6.758 0 0 0-4.457-1.67z"/><path d="M17.5.167C7.927.167.167 7.927.167 17.5c0 9.573 7.76 17.333 17.333 17.333s17.333-7.76 17.333-17.333C34.833 7.927 27.073.167 17.5.167zm7.944 24.237a10.53 10.53 0 0 1-7.95 3.622c-2.533 0-4.982-.916-6.899-2.582l-.001.001c-4.378-3.808-4.844-10.47-1.038-14.848a10.479 10.479 0 0 1 6.448-3.51v-.003c3-.44 6.107.477 8.4 2.473a10.527 10.527 0 0 1 1.04 14.846z"/><path d="M12.359 13.034c1.135-1.304 2.725-2.059 4.176-2.272l-.53-3.675a10.478 10.478 0 0 0-6.449 3.51c-3.806 4.379-3.34 11.04 1.038 14.848l2.42-2.797c-2.832-2.467-3.118-6.781-.655-9.614z" opacity=".4"/></svg>