<svg xmlns="http://www.w3.org/2000/svg" viewBox="0 0 35 35" enable-background="new 0 0 35 35"><path d="M4.396 14.521c0-6.147 4.939-11.147 11.01-11.147s11.01 5 11.01 11.147-4.938 11.149-11.01 11.149-11.01-5.002-11.01-11.149m28.853 17.58l-7.539-7.865a14.326 14.326 0 0 0 3.79-9.715C29.5 6.643 23.176.233 15.405.233S1.312 6.643 1.312 14.521 7.636 28.81 15.406 28.81c2.956 0 5.7-.931 7.968-2.514l7.668 8a1.526 1.526 0 0 0 2.18.026c.61-.606.622-1.6.027-2.22"/><defs><filter id="a" filterUnits="userSpaceOnUse"><feColorMatrix values="1 0 0 0 0 0 1 0 0 0 0 0 1 0 0 0 0 0 1 0"/></filter></defs></svg>