<svg xmlns="http://www.w3.org/2000/svg" viewBox="0 0 35 35"><path d="M34.258 18.37a1.476 1.476 0 0 0-2.087.116l-4.621 5.159V5.494a1.479 1.479 0 0 0-2.957 0V23.19l-3.997-4.678a1.483 1.483 0 0 0-2.085-.163 1.481 1.481 0 0 0-.164 2.085l6.739 7.883a1.48 1.48 0 0 0 1.107.518h.017c.42 0 .82-.179 1.101-.493l7.062-7.885a1.477 1.477 0 0 0-.115-2.087zM9.913 6.682a1.476 1.476 0 0 0-1.106-.518c-.398.015-.835.174-1.119.492l-7.06 7.887a1.477 1.477 0 1 0 2.202 1.972l4.62-5.16v18.151a1.479 1.479 0 0 0 2.958 0V11.811l3.996 4.675a1.48 1.48 0 0 0 2.25-1.922L9.912 6.682z"/></svg>