<svg xmlns="http://www.w3.org/2000/svg" viewBox="0 0 35 35"><path d="M12.205 6.92H9.567v6.068l-2.26 2.251 1.874 1.875 3.024-3.034z"/><path d="M20.052 6.92c-1.831-3.162-5.25-5.295-9.16-5.295C5.054 1.625.31 6.379.31 12.215c0 3.907 2.128 7.322 5.285 9.155v12.005H34.69V6.92H20.052zM2.958 12.205a7.938 7.938 0 0 1 7.933-7.933c4.367 0 7.933 3.556 7.933 7.933s-3.556 7.933-7.933 7.933-7.933-3.556-7.933-7.933zm29.093 18.523H8.244V22.46a10.57 10.57 0 0 0 2.647.335c4.914 0 9.065-3.382 10.245-7.942H32.05v15.875z"/><path d="M26.756 25.433h2.647v2.647h-2.647zm0-5.286h2.647v2.647h-2.647zm-5.285 0h2.647v2.647h-2.647zm0 5.286h2.647v2.647h-2.647zm-5.295 0h2.647v2.647h-2.647zm-5.285 0h2.647v2.647h-2.647z"/></svg>