<?xml version="1.0" encoding="UTF-8"?>
<svg width="24px" height="30px" viewBox="0 0 24 30" version="1.1" xmlns="http://www.w3.org/2000/svg" xmlns:xlink="http://www.w3.org/1999/xlink">
    <!-- Generator: Sketch 56.2 (81672) - https://sketch.com -->
    <title>step-current-2</title>
    <desc>Created with Sketch.</desc>
    <defs>
        <polygon id="step-current-2" points="22 6.104 11.151 1.08357767e-13 0 5.957 0 18.429 11.151 24.385 22 18.155"></polygon>
        <filter x="-11.4%" y="-10.5%" width="122.7%" height="137.5%" filterUnits="objectBoundingBox" id="filter-2">
            <feMorphology radius="0.5" operator="dilate" in="SourceAlpha" result="shadowSpreadOuter1"></feMorphology>
            <feOffset dx="0" dy="4" in="shadowSpreadOuter1" result="shadowOffsetOuter1"></feOffset>
            <feComposite in="shadowOffsetOuter1" in2="SourceAlpha" operator="out" result="shadowOffsetOuter1"></feComposite>
            <feColorMatrix values="0 0 0 0 0.862745098   0 0 0 0 0.909803922   0 0 0 0 0.980392157  0 0 0 1 0" type="matrix" in="shadowOffsetOuter1"></feColorMatrix>
        </filter>
    </defs>
    <g id="-----↳-Create" stroke="none" stroke-width="1" fill="none" fill-rule="evenodd">
        <g id="Create-Workspace-(Microstates)" transform="translate(-1004.000000, -651.000000)">
            <g id="step-current-2" transform="translate(1005.000000, 652.000000)">
                <g id="Fill-2-Copy">
                    <use fill="black" fill-opacity="1" filter="url(#filter-2)" xlink:href="#step-current-2"></use>
                    <use stroke="#3E40B8" stroke-width="1" fill="#3E40B8" fill-rule="evenodd" xlink:href="#step-current-2"></use>
                </g>
                <path d="M7.7,10.3770508 C7.7,8.60605469 9.05839844,7.4 11.0388672,7.4 C12.9495117,7.4 14.2825195,8.49814453 14.2825195,10.0723633 C14.2825195,11.0689453 13.7429687,11.9258789 12.1560547,13.4175781 L10.4041016,15.0870117 L10.4041016,15.2012695 L14.4158203,15.2012695 L14.4158203,16.7945313 L7.80791016,16.7945313 L7.80791016,15.4551758 L10.7976562,12.5289063 C12.0862305,11.2720703 12.4099609,10.7959961 12.4099609,10.1993164 C12.4099609,9.46298828 11.8132812,8.94248047 10.9753906,8.94248047 C10.0867187,8.94248047 9.47734375,9.52646484 9.47734375,10.3707031 L9.47734375,10.4087891 L7.7,10.4087891 L7.7,10.3770508 Z" id="2" fill="#FFFFFF" fill-rule="nonzero"></path>
            </g>
        </g>
    </g>
</svg>