<?xml version="1.0" encoding="UTF-8"?>
<svg width="24px" height="30px" viewBox="0 0 24 30" version="1.1" xmlns="http://www.w3.org/2000/svg" xmlns:xlink="http://www.w3.org/1999/xlink">
    <!-- Generator: Sketch 56.2 (81672) - https://sketch.com -->
    <title>step-pending-5</title>
    <desc>Created with Sketch.</desc>
    <defs>
        <polygon id="step-pending-5" points="22 6.104 11.151 1.08357767e-13 0 5.957 0 18.429 11.151 24.385 22 18.155"></polygon>
        <filter x="-11.4%" y="-10.5%" width="122.7%" height="137.5%" filterUnits="objectBoundingBox" id="filter-2">
            <feMorphology radius="0.5" operator="dilate" in="SourceAlpha" result="shadowSpreadOuter1"></feMorphology>
            <feOffset dx="0" dy="4" in="shadowSpreadOuter1" result="shadowOffsetOuter1"></feOffset>
            <feComposite in="shadowOffsetOuter1" in2="SourceAlpha" operator="out" result="shadowOffsetOuter1"></feComposite>
            <feColorMatrix values="0 0 0 0 0.9405   0 0 0 0 0.944458333   0 0 0 0 0.95  0 0 0 1 0" type="matrix" in="shadowOffsetOuter1"></feColorMatrix>
        </filter>
    </defs>
    <g id="-----↳-Create" stroke="none" stroke-width="1" fill="none" fill-rule="evenodd">
        <g id="Create-Workspace-(Microstates)" transform="translate(-964.000000, -771.000000)">
            <g id="step-pending-5" transform="translate(965.000000, 772.000000)">
                <g id="Fill-2-Copy-4">
                    <use fill="black" fill-opacity="1" filter="url(#filter-2)" xlink:href="#step-pending-5"></use>
                    <use stroke="#BBC4D1" stroke-width="1" fill="#FFFFFF" fill-rule="evenodd" xlink:href="#step-pending-5"></use>
                </g>
                <path d="M10.9086914,16.6945313 C8.91552734,16.6945313 7.55712891,15.4948242 7.5,13.8571289 L9.27099609,13.8571289 C9.37890625,14.6188477 10.0517578,15.1266602 10.9213867,15.1266602 C11.9052734,15.1266602 12.5844727,14.4665039 12.5844727,13.4699219 C12.5844727,12.4606445 11.8989258,11.787793 10.9277344,11.787793 C10.2167969,11.787793 9.67724609,12.0988281 9.35986328,12.6129883 L7.64599609,12.6129883 L8.10302734,7.3 L13.8603516,7.3 L13.8603516,8.89326172 L9.58837891,8.89326172 L9.38525391,11.2482422 L9.49951172,11.2482422 C9.88671875,10.6896484 10.5341797,10.3532227 11.4418945,10.3532227 C13.1811523,10.3532227 14.4125977,11.6291016 14.4125977,13.4254883 C14.4125977,15.3678711 13.0097656,16.6945313 10.9086914,16.6945313 Z" id="5" fill="#9FA7B3" fill-rule="nonzero"></path>
            </g>
        </g>
    </g>
</svg>